<?xml version="1.0" encoding="UTF-8"?>
<svg version="1.1" xmlns="http://www.w3.org/2000/svg" width="256" height="256">
<path d="M0 0 C1 1 1 1 1.2199707 4.94165039 C1.131144 13.01559634 -0.29214846 20.97134498 -1.51953125 28.93359375 C-1.78168149 30.66084914 -2.04353255 32.38814996 -2.30509949 34.11549377 C-2.85228826 37.71607267 -3.40532772 41.31569509 -3.9621582 44.91479492 C-4.67514162 49.52848763 -5.36981196 54.14473436 -6.0597887 58.76191616 C-6.59426627 62.32080926 -7.14007919 65.87789416 -7.68918419 69.43455696 C-7.95025076 71.13682658 -8.20736907 72.83970659 -8.46045876 74.54318047 C-8.81448525 76.91676684 -9.18412032 79.28740842 -9.55786133 81.65795898 C-9.65928436 82.36082031 -9.7607074 83.06368164 -9.86520386 83.7878418 C-10.32298614 86.60167513 -10.74256933 88.65836401 -12.47587585 90.95863342 C-14 92 -14 92 -15.828125 92.00390625 C-18.96956767 90.55183652 -21.27441583 88.29937623 -23.75 85.9375 C-24.25660156 85.46505859 -24.76320313 84.99261719 -25.28515625 84.50585938 C-26.52949613 83.34369289 -27.76558064 82.17269839 -29 81 C-33.72133748 82.42416944 -36.51002312 85.19320452 -39.8125 88.6875 C-40.87695073 89.78445305 -41.9433544 90.87951446 -43.01171875 91.97265625 C-43.52524902 92.49875488 -44.0387793 93.02485352 -44.56787109 93.56689453 C-46.34567457 95.34591028 -48.20838247 96.99724133 -50.125 98.625 C-54.16494015 102.06146361 -57.83690495 105.82272087 -61.5625 109.59375 C-64.25283906 112.24959753 -67.06573525 114.70135432 -69.9375 117.15625 C-73.29035849 120.15350228 -76.39893756 123.39159634 -79.55859375 126.58984375 C-82.27202727 129.26854532 -85.10777023 131.74608118 -88.00390625 134.22265625 C-90.26132626 136.23268777 -92.37735713 138.34832953 -94.5 140.5 C-100.33146302 146.40172161 -106.60508583 151.72419581 -113 157 C-114.91796875 156.390625 -114.91796875 156.390625 -117 155 C-117.80078125 152.234375 -117.80078125 152.234375 -118.3125 148.75 C-120.43072974 137.49907483 -125.36196371 126.26747102 -134.53515625 118.98828125 C-135.36917969 118.43527344 -136.20320313 117.88226563 -137.0625 117.3125 C-140.10230786 115.27503248 -143.09207843 113.22291464 -146 111 C-145.41884626 107.48157214 -144.20392497 105.83744782 -141.68359375 103.35546875 C-140.65975586 102.33936523 -140.65975586 102.33936523 -139.61523438 101.30273438 C-138.53725586 100.25569336 -138.53725586 100.25569336 -137.4375 99.1875 C-136.74591797 98.50107422 -136.05433594 97.81464844 -135.34179688 97.10742188 C-131.28462527 93.11074863 -127.10589011 89.30573799 -122.79711914 85.58325195 C-120.42241062 83.49114698 -118.20728883 81.26694528 -116 79 C-112.45767801 75.41441301 -108.82444339 72.05108338 -104.99609375 68.77734375 C-101.93333273 66.05022777 -99.09776507 63.10595363 -96.21875 60.1875 C-93.6005296 57.60615594 -90.85007681 55.22546715 -88.0546875 52.83984375 C-84.83765901 49.95919656 -81.86943962 46.83936295 -78.8828125 43.72265625 C-77 42 -77 42 -75 42 C-76.33554435 38.02119078 -77.98618304 35.65301487 -81 32.75 C-81.70125 32.06421875 -82.4025 31.3784375 -83.125 30.671875 C-84.90367296 28.93921791 -84.90367296 28.93921791 -87 28 C-87 26.35 -87 24.7 -87 23 C-81.84749827 21.00551271 -76.71617531 19.25894632 -71.37817383 17.82348633 C-70.66327286 17.62797684 -69.94837189 17.43246735 -69.21180725 17.23103333 C-66.87795249 16.5940203 -64.54260229 15.96272017 -62.20703125 15.33203125 C-60.57130232 14.8880713 -58.93561678 14.44395142 -57.29997253 13.99967957 C-53.88567812 13.0733591 -50.47057825 12.15008111 -47.05493164 11.22875977 C-42.68181088 10.04874045 -38.31128424 8.85940554 -33.94136524 7.66759205 C-30.57021441 6.74958863 -27.19751591 5.83738005 -23.82434654 4.92682457 C-22.21189385 4.49063735 -20.59997957 4.05245465 -18.98862648 3.61222267 C-16.73854215 2.99823187 -14.48643572 2.39229431 -12.23364258 1.78833008 C-11.24152771 1.51487762 -11.24152771 1.51487762 -10.22937012 1.23590088 C-6.74864483 0.31244778 -3.60456281 -0.29765458 0 0 Z " fill="#EE6F21" transform="translate(255,34)"/>
<path d="M0 0 C0.474375 0.45375 0.94875 0.9075 1.4375 1.375 C1.4375 2.035 1.4375 2.695 1.4375 3.375 C2.02305664 3.63837158 2.60861328 3.90174316 3.21191406 4.1730957 C5.53606286 5.42822783 7.14357738 6.78185954 9.046875 8.60546875 C9.71976563 9.24419922 10.39265625 9.88292969 11.0859375 10.54101562 C11.77945313 11.20810547 12.47296875 11.87519531 13.1875 12.5625 C17.96447128 17.12605146 22.77793704 21.60842778 27.78222656 25.9230957 C31.3884396 29.08624452 31.3884396 29.08624452 31.84765625 31.7890625 C31.4375 34.375 31.4375 34.375 29.49609375 36.1484375 C28.63113281 36.67695313 27.76617187 37.20546875 26.875 37.75 C16.94715437 44.30797127 9.85859636 52.626297 6.92285156 64.44726562 C6.26848431 67.75759407 5.75988741 71.04072573 5.3359375 74.390625 C4.4375 77.375 4.4375 77.375 1.8515625 78.796875 C0.65660156 79.08304688 0.65660156 79.08304688 -0.5625 79.375 C-6.26993278 74.82350297 -11.82973022 70.28293749 -16.91015625 65.03515625 C-18.60613594 63.33115774 -20.36739696 61.75785917 -22.1875 60.1875 C-46.76265393 38.92423205 -46.76265393 38.92423205 -47.84765625 28.68359375 C-48.31312331 19.33844746 -45.98296498 13.17364904 -39.83984375 6.19140625 C-27.94853775 -6.64852126 -15.35019034 -9.73426704 0 0 Z " fill="#3084FB" transform="translate(47.5625,111.625)"/>
<path d="M0 0 C7.28666639 5.30159449 11.84160991 11.57323294 13.5390625 20.5234375 C14.43569123 30.13017388 12.41924211 38.09627336 6.34375 45.66796875 C0.00088764 52.18930992 -7.17971936 55.53028593 -16.2109375 55.8984375 C-24.56883904 55.73272941 -31.70509849 53.09463355 -37.859375 47.36328125 C-44.22531058 40.05021867 -46.8567661 32.87720816 -46.7421875 23.28125 C-45.9690635 15.70033969 -42.98104378 8.79820572 -37.4609375 3.5234375 C-26.270635 -5.37306736 -12.64313609 -7.58588166 0 0 Z " fill="#EE7124" transform="translate(111.4609375,160.4765625)"/>
<path d="M0 0 C1.32 0.33 2.64 0.66 4 1 C0.04 4.465 0.04 4.465 -4 8 C-4 4.09161134 -2.49432124 2.88405893 0 0 Z " fill="#EF7D38" transform="translate(74,164)"/>
</svg>
